HIERARCHY
ROOT hip
{
	OFFSET	0.00  0.00  0.00 
	CHANNELS 6 Xposition Yposition Zposition Xrotation Zrotation Yrotation
	JOINT abdomen
	{
		OFFSET	0.000000 1.799998 0.000000
		CHANNELS 3 Xrotation Zrotation Yrotation
		JOINT chest
		{
			OFFSET	0.000000 4.464001 -0.360000
			CHANNELS 3 Xrotation Zrotation Yrotation
			JOINT neck
			{
				OFFSET	0.000000 5.400002 -0.144000
				CHANNELS 3 Xrotation Zrotation Yrotation
				JOINT head
				{
					OFFSET	0.000000 1.655998 0.000000
					CHANNELS 3 Xrotation Zrotation Yrotation
					End Site
					{
						OFFSET 0.000000 1.656000 0.000000
					}
				}
			}
			JOINT lCollar
			{
				OFFSET	1.800000 3.528000 -0.432000
				CHANNELS 3 Yrotation Zrotation Xrotation
				JOINT lShldr
				{
					OFFSET	1.728000 0.000000 0.000000
					CHANNELS 3 Zrotation Yrotation Xrotation
					JOINT lForeArm
					{
						OFFSET	5.328000 0.000000 0.000000
						CHANNELS 3 Yrotation Zrotation Xrotation
						JOINT lHand
						{
							OFFSET	4.464000 0.000000 0.000000
							CHANNELS 3 Zrotation Yrotation Xrotation
							End Site
							{
								OFFSET 2.160000 0.000000 0.000000
							}
						}
					}
				}
			}
			JOINT rCollar
			{
				OFFSET	-1.872000 3.528000 -0.432000
				CHANNELS 3 Yrotation Zrotation Xrotation
				JOINT rShldr
				{
					OFFSET	-1.656000 0.000000 0.000000
					CHANNELS 3 Zrotation Yrotation Xrotation
					JOINT rForeArm
					{
						OFFSET	-5.400000 0.000000 0.000000
						CHANNELS 3 Yrotation Zrotation Xrotation
						JOINT rHand
						{
							OFFSET	-4.392000 0.000000 0.000000
							CHANNELS 3 Zrotation Yrotation Xrotation
							End Site
							{
								OFFSET -2.160000 0.000000 0.000000
							}
						}
					}
				}
			}
		}
	}
	JOINT lThigh
	{
		OFFSET	2.808000 -0.864002 0.720000
		CHANNELS 3 Xrotation Zrotation Yrotation
		JOINT lShin
		{
			OFFSET	-1.080000 -10.583999 0.000000
			CHANNELS 3 Xrotation Zrotation Yrotation
			JOINT lFoot
			{
				OFFSET	0.000000 -10.152000 -0.648000
				CHANNELS 3 Xrotation Yrotation Zrotation
				End Site
				{
					OFFSET 0.000000 -1.296000 2.448000
				}
			}
		}
	}
	JOINT rThigh
	{
		OFFSET	-2.808000 -0.864002 0.720000
		CHANNELS 3 Xrotation Zrotation Yrotation
		JOINT rShin
		{
			OFFSET	1.080000 -10.583999 0.000000
			CHANNELS 3 Xrotation Zrotation Yrotation
			JOINT rFoot
			{
				OFFSET	0.000000 -10.152000 -0.648000
				CHANNELS 3 Xrotation Yrotation Zrotation
				End Site
				{
					OFFSET 0.000000 -1.296000 2.448000
				}
			}
		}
	}
}
MOTION
Frames:     13
Frame Time: 0.033333
0.000000 23.132980 0.000000 0.000000 0.000000 0.000000 1.929492 0.801657 -1.925169 16.864824 0.498904 -1.010067 10.914364 -1.398497 1.283723 -13.416138 -4.086349 -1.075458 -23.337624 11.812437 8.269978 -105.000000 -43.705601 -14.866952 -32.311275 -0.817020 4.395363 -17.309925 -12.179700 3.768938 12.344125 11.156599 -1.821291 69.185593 27.342213 6.500176 46.777786 2.878500 -0.506525 5.260770 15.709690 -47.712898 -5.184050 4.999410 0.038727 10.249900 -1.990220 -0.099961 8.963550 0.919110 2.636360 -5.180720 -5.496240 -0.173502 10.512400 2.362380 0.153930 11.921100 0.146616 -2.066550 
0.000000 23.132980 0.000000 0.000000 0.000000 0.000000 1.502399 0.881266 -1.735861 16.246092 0.633926 -0.930602 8.544267 -1.534931 1.332842 -14.058461 -4.057857 -0.718495 -24.493950 10.886024 8.475635 -105.000000 -45.402901 -16.711435 -28.224051 -0.163170 9.263575 -16.372749 -12.417100 8.512625 13.151150 11.187300 -1.796878 68.553398 27.227875 4.000212 45.112923 2.654200 2.995650 3.716713 16.158159 -51.536964 -5.184050 4.999410 0.038727 10.249900 -1.990220 -0.099961 8.963550 0.919110 2.636360 -5.180720 -5.496240 -0.173502 10.512400 2.362380 0.153930 11.921100 0.146616 -2.066550 
0.000000 23.132980 0.000000 0.000000 0.000000 0.000000 1.128767 0.938190 -1.217081 15.534457 0.737407 -0.750234 6.354314 -1.640011 1.167378 -14.531284 -4.019337 -0.470935 -25.650276 9.959612 8.681292 -105.000000 -47.100201 -18.555918 -24.136826 0.490680 14.131787 -15.435575 -12.654500 13.256312 13.958175 11.218000 -1.772464 67.921204 27.113537 1.500247 43.448059 2.429900 6.497825 2.172657 16.606628 -55.361031 -5.184050 4.999410 0.038727 10.249900 -1.990220 -0.099961 8.963550 0.919110 2.636360 -5.180720 -5.496240 -0.173502 10.512400 2.362380 0.153930 11.921100 0.146616 -2.066550 
0.000000 23.132980 0.000000 0.000000 0.000000 0.000000 0.830078 0.966799 -0.302735 14.726600 0.800815 -0.449191 4.431700 -1.699200 0.742000 -14.788800 -3.968800 -0.361800 -26.806601 9.033200 8.886950 -105.000000 -48.797501 -20.400400 -20.049601 1.144530 19.000000 -14.498400 -12.891900 18.000000 14.765200 11.248700 -1.748050 67.289001 26.999201 -0.999717 41.783199 2.205600 10.000000 0.628600 17.055099 -59.185101 -5.184050 4.999410 0.038727 10.249900 -1.990220 -0.099961 8.963550 0.919110 2.636360 -5.180720 -5.496240 -0.173502 10.512400 2.362380 0.153930 11.921100 0.146616 -2.066550 
0.000000 23.132980 0.000000 0.000000 0.000000 0.000000 0.622340 0.963116 1.048669 13.822434 0.818053 -0.014154 2.844350 -1.701399 0.027932 -14.798336 -3.904925 -0.411712 -26.920507 8.820777 8.892353 -103.387627 -44.879177 -18.910053 -20.126070 0.866543 18.636223 -14.469169 -12.495261 14.519808 14.967923 10.383415 -1.615100 66.426392 27.199577 -2.232154 40.629639 2.167765 7.922029 0.580246 15.743169 -54.093941 -5.184050 4.999410 0.038727 10.249900 -1.990220 -0.099961 8.963550 0.919110 2.636360 -5.180720 -5.496240 -0.173502 10.512400 2.362380 0.153930 11.921100 0.146616 -2.066550 
0.000000 23.132980 0.000000 0.000000 0.000000 0.000000 0.497822 0.930378 2.780192 12.835889 0.793620 0.542389 1.583108 -1.649264 -0.937361 -14.584270 -3.829258 -0.604837 -27.034414 8.608354 8.897757 -101.775253 -40.960854 -17.419706 -20.202539 0.588556 18.272446 -14.439938 -12.098622 11.039616 15.170647 9.518130 -1.482150 65.563782 27.399954 -3.464591 39.476078 2.129930 5.844057 0.531892 14.431238 -49.002777 -5.184050 4.999410 0.038727 10.249900 -1.990220 -0.099961 8.963550 0.919110 2.636360 -5.180720 -5.496240 -0.173502 10.512400 2.362380 0.153930 11.921100 0.146616 -2.066550 
0.000000 23.132980 0.000000 0.000000 0.000000 0.000000 0.443528 0.873389 4.810308 11.783718 0.734327 1.201502 0.619530 -1.548891 -2.099859 -14.183448 -3.743969 -0.917382 -27.148321 8.395930 8.903160 -100.162872 -37.042530 -15.929360 -20.279009 0.310569 17.908669 -14.410707 -11.701984 7.559423 15.373370 8.652845 -1.349200 64.701172 27.600330 -4.697029 38.322517 2.092095 3.766086 0.483538 13.119308 -43.911613 -5.184050 4.999410 0.038727 10.249900 -1.990220 -0.099961 8.963550 0.919110 2.636360 -5.180720 -5.496240 -0.173502 10.512400 2.362380 0.153930 11.921100 0.146616 -2.066550 
0.000000 23.132980 0.000000 0.000000 0.000000 0.000000 0.447357 0.796645 7.057490 10.681850 0.646544 1.944250 -0.074827 -1.406376 -3.405526 -13.630334 -3.651106 -1.327075 -27.262230 8.183507 8.908564 -98.550491 -33.124207 -14.439014 -20.355478 0.032582 17.544891 -14.381475 -11.305346 4.079231 15.576094 7.787561 -1.216250 63.838566 27.800707 -5.929466 37.168957 2.054260 1.688114 0.435185 11.807377 -38.820454 -5.184050 4.999410 0.038727 10.249900 -1.990220 -0.099961 8.963550 0.919110 2.636360 -5.180720 -5.496240 -0.173502 10.512400 2.362380 0.153930 11.921100 0.146616 -2.066550 
0.000000 23.132980 0.000000 0.000000 0.000000 0.000000 0.498105 0.704337 9.440191 9.545426 0.536196 2.751691 -0.528398 -1.227814 -4.800343 -12.957033 -3.552594 -1.813144 -27.376137 7.971084 8.913968 -96.938118 -29.205883 -12.948668 -20.431948 -0.245405 17.181114 -14.352244 -10.908707 0.599039 15.778816 6.922276 -1.083300 62.975960 28.001083 -7.161903 36.015396 2.016426 -0.389857 0.386831 10.495446 -33.729294 -5.184050 4.999410 0.038727 10.249900 -1.990220 -0.099961 8.963550 0.919110 2.636360 -5.180720 -5.496240 -0.173502 10.512400 2.362380 0.153930 11.921100 0.146616 -2.066550 
0.000000 23.132980 0.000000 0.000000 0.000000 0.000000 0.585466 0.600356 11.876887 8.388928 0.408778 3.604889 -0.769625 -1.019301 -6.230283 -12.193350 -3.450254 -2.356286 -27.490044 7.758661 8.919373 -95.325745 -25.287560 -11.458323 -20.508417 -0.523392 16.817337 -14.323013 -10.512069 -2.881154 15.981539 6.056992 -0.950350 62.113354 28.201460 -8.394341 34.861835 1.978591 -2.467829 0.338477 9.183516 -28.638132 -5.184050 4.999410 0.038727 10.249900 -1.990220 -0.099961 8.963550 0.919110 2.636360 -5.180720 -5.496240 -0.173502 10.512400 2.362380 0.153930 11.921100 0.146616 -2.066550 
0.000000 23.132980 0.000000 0.000000 0.000000 0.000000 0.700027 0.488309 14.286046 7.226339 0.269370 4.484910 -0.826947 -0.786932 -7.641326 -11.366885 -3.345812 -2.938587 -27.603952 7.546238 8.924776 -93.713364 -21.369236 -9.967977 -20.584887 -0.801378 16.453560 -14.293783 -10.115431 -6.361346 16.184261 5.191708 -0.817400 61.250748 28.401836 -9.626778 33.708275 1.940756 -4.545800 0.290123 7.871585 -23.546970 -5.184050 4.999410 0.038727 10.249900 -1.990220 -0.099961 8.963550 0.919110 2.636360 -5.180720 -5.496240 -0.173502 10.512400 2.362380 0.153930 11.921100 0.146616 -2.066550 
0.000000 23.132980 0.000000 0.000000 0.000000 0.000000 0.833240 0.371547 16.586149 6.071456 0.122669 5.372819 -0.728804 -0.536802 -8.979437 -10.503241 -3.240927 -3.543380 -27.717861 7.333816 8.930180 -92.100983 -17.450912 -8.477631 -20.661356 -1.079365 16.089783 -14.264553 -9.718792 -9.841538 16.386984 4.326423 -0.684450 60.388138 28.602213 -10.859215 32.554710 1.902921 -6.623772 0.241769 6.559654 -18.455809 -5.184050 4.999410 0.038727 10.249900 -1.990220 -0.099961 8.963550 0.919110 2.636360 -5.180720 -5.496240 -0.173502 10.512400 2.362380 0.153930 11.921100 0.146616 -2.066550 
0.000000 23.132980 0.000000 0.000000 0.000000 0.000000 0.977377 0.253213 18.695633 4.938406 -0.026949 6.249670 -0.503635 -0.275008 -10.190595 -9.626383 -3.137240 -4.154985 -27.831768 7.121392 8.935584 -90.488609 -13.532590 -6.987285 -20.737825 -1.357352 15.726007 -14.235322 -9.322153 -13.321731 16.589706 3.461138 -0.551500 59.525532 28.802589 -12.091652 31.401148 1.865086 -8.701743 0.193415 5.247724 -13.364647 -5.184050 4.999410 0.038727 10.249900 -1.990220 -0.099961 8.963550 0.919110 2.636360 -5.180720 -5.496240 -0.173502 10.512400 2.362380 0.153930 11.921100 0.146616 -2.066550 
